<svg width="12" height="14" viewBox="0 0 12 14" fill="none" xmlns="http://www.w3.org/2000/svg">
<path fill-rule="evenodd" clip-rule="evenodd" d="M6.5694 12.9088C7.68578 12.3297 11.5395 10.0574 11.5395 6.28098C11.5395 3.37058 9.18015 1.01123 6.26975 1.01123C3.35935 1.01123 1 3.37058 1 6.28098C1 10.0574 4.85371 12.3297 5.9701 12.9088C6.16046 13.0075 6.37904 13.0075 6.5694 12.9088ZM6.26976 8.53944C7.51707 8.53944 8.52822 7.52829 8.52822 6.28098C8.52822 5.03366 7.51707 4.02251 6.26976 4.02251C5.02244 4.02251 4.01129 5.03366 4.01129 6.28098C4.01129 7.52829 5.02244 8.53944 6.26976 8.53944Z" fill="#C9C9C9"/>
<path d="M6.5694 12.9088L6.50007 12.7751L6.5694 12.9088ZM5.9701 12.9088L5.90077 13.0424L5.90077 13.0424L5.9701 12.9088ZM11.3889 6.28098C11.3889 8.11462 10.4538 9.59089 9.36617 10.6879C8.27872 11.7847 7.05151 12.4891 6.50007 12.7751L6.63872 13.0424C7.20367 12.7494 8.46151 12.0281 9.58001 10.8999C10.6984 9.77185 11.6901 8.22374 11.6901 6.28098H11.3889ZM6.26975 1.16179C9.09699 1.16179 11.3889 3.45373 11.3889 6.28098H11.6901C11.6901 3.28742 9.2633 0.860666 6.26975 0.860666V1.16179ZM1.15056 6.28098C1.15056 3.45373 3.4425 1.16179 6.26975 1.16179V0.860666C3.27619 0.860666 0.849436 3.28742 0.849436 6.28098H1.15056ZM6.03942 12.7751C5.48799 12.4891 4.26078 11.7847 3.17333 10.6879C2.08574 9.59089 1.15056 8.11462 1.15056 6.28098H0.849436C0.849436 8.22374 1.84112 9.77185 2.95948 10.8999C4.07799 12.0281 5.33582 12.7494 5.90077 13.0424L6.03942 12.7751ZM6.50007 12.7751C6.35318 12.8513 6.18632 12.8513 6.03942 12.7751L5.90077 13.0424C6.1346 13.1637 6.4049 13.1637 6.63872 13.0424L6.50007 12.7751ZM8.37766 6.28098C8.37766 7.44514 7.43392 8.38887 6.26976 8.38887V8.69C7.60023 8.69 8.67878 7.61144 8.67878 6.28098H8.37766ZM6.26976 4.17308C7.43392 4.17308 8.37766 5.11681 8.37766 6.28098H8.67878C8.67878 4.95051 7.60023 3.87195 6.26976 3.87195V4.17308ZM4.16186 6.28098C4.16186 5.11681 5.1056 4.17308 6.26976 4.17308V3.87195C4.93929 3.87195 3.86073 4.95051 3.86073 6.28098H4.16186ZM6.26976 8.38887C5.1056 8.38887 4.16186 7.44514 4.16186 6.28098H3.86073C3.86073 7.61144 4.93929 8.69 6.26976 8.69V8.38887Z" fill="#C9C9C9"/>
</svg>
